<?xml version="1.0" standalone="no"?>
<!DOCTYPE svg PUBLIC "-//W3C//DTD SVG 20010904//EN"
 "http://www.w3.org/TR/2001/REC-SVG-20010904/DTD/svg10.dtd">
<svg version="1.0" xmlns="http://www.w3.org/2000/svg"
 width="339.000000pt" height="340.000000pt" viewBox="0 0 339.000000 340.000000"
 preserveAspectRatio="xMidYMid meet">
<metadata>
Created by potrace 1.16, written by Peter Selinger 2001-2019
</metadata>
<g transform="translate(0.000000,340.000000) scale(0.100000,-0.100000)"
fill="#000000" stroke="none">
<path d="M110 3372 c-19 -10 -48 -36 -64 -56 -40 -49 -48 -134 -18 -192 16
-31 214 -205 836 -735 758 -644 815 -695 798 -709 -9 -8 -378 -322 -818 -696
-656 -559 -803 -689 -818 -722 -27 -60 -19 -141 20 -189 46 -56 88 -75 161
-71 53 3 68 9 105 38 133 106 1780 1514 1802 1540 47 56 55 134 21 200 -8 14
-33 43 -57 66 -43 41 -1684 1438 -1766 1504 -37 29 -52 35 -105 38 -47 2 -70
-1 -97 -16z"/>
<path d="M1910 354 c-69 -30 -110 -93 -110 -168 0 -56 14 -93 48 -129 56 -59
23 -57 744 -57 743 0 700 -4 762 73 28 35 31 46 31 106 0 84 -31 137 -97 170
-44 21 -52 21 -694 21 -555 -1 -654 -3 -684 -16z"/>
</g>
</svg>
