<?xml version="1.0" standalone="no"?>
<!DOCTYPE svg PUBLIC "-//W3C//DTD SVG 20010904//EN"
 "http://www.w3.org/TR/2001/REC-SVG-20010904/DTD/svg10.dtd">
<svg version="1.0" xmlns="http://www.w3.org/2000/svg"
 width="468.000000pt" height="340.000000pt" viewBox="0 0 468.000000 340.000000"
 preserveAspectRatio="xMidYMid meet">
<metadata>
Created by potrace 1.16, written by Peter Selinger 2001-2019
</metadata>
<g transform="translate(0.000000,340.000000) scale(0.100000,-0.100000)"
fill="#000000" stroke="none">
<path d="M900 3390 c-126 -12 -269 -37 -352 -61 -102 -30 -112 -48 -116 -221
l-3 -136 -27 -7 c-58 -14 -330 -127 -357 -149 -28 -23 -28 -24 -36 -167 -10
-177 -11 -2168 -2 -2409 l6 -175 33 -33 c50 -50 88 -45 312 37 313 115 589
194 842 242 164 30 498 38 625 14 125 -23 228 -66 308 -128 136 -104 122 -97
212 -97 90 0 76 -7 212 97 80 62 183 105 308 128 127 24 461 16 625 -14 253
-48 529 -127 842 -242 226 -83 262 -87 314 -35 l34 34 -2 1362 -3 1362 -27 23
c-24 21 -297 135 -360 150 l-27 7 -3 136 c-4 198 -14 208 -248 251 -637 117
-1200 -42 -1581 -447 l-84 -90 -80 86 c-285 306 -672 472 -1129 486 -77 3
-184 1 -236 -4z m510 -185 c196 -44 415 -139 543 -236 85 -65 220 -197 275
-270 l42 -56 0 -484 c0 -266 -3 -771 -7 -1122 l-6 -638 -51 49 c-364 353 -898
495 -1491 397 -49 -8 -96 -15 -102 -15 -10 0 -13 241 -13 1174 l0 1175 58 12
c145 31 241 38 457 34 159 -2 241 -8 295 -20z m2567 -3 c56 -11 107 -23 113
-27 7 -4 10 -374 10 -1176 0 -1107 -1 -1169 -17 -1169 -10 0 -58 7 -108 15
-148 25 -383 36 -517 25 -366 -30 -705 -172 -945 -395 l-80 -74 -6 601 c-4
331 -7 835 -7 1121 l0 520 42 56 c50 67 184 200 260 259 158 121 377 213 613
257 119 21 503 14 642 -13z m-3547 -1422 c0 -1113 -3 -1053 56 -1099 34 -27
87 -27 224 0 75 14 165 22 315 26 185 5 225 3 334 -16 68 -11 170 -36 226 -55
102 -35 262 -109 300 -141 20 -16 19 -16 -5 -9 -46 13 -456 16 -562 5 -253
-28 -681 -142 -1035 -276 l-113 -43 0 1264 0 1263 22 12 c25 14 219 88 231 89
4 0 7 -459 7 -1020z m3976 969 l111 -42 6 -600 c8 -701 7 -1652 -2 -1819 l-6
-116 -60 25 c-119 49 -503 172 -660 211 -295 74 -389 86 -660 87 -132 0 -265
-3 -295 -8 -51 -7 -54 -6 -35 9 40 32 200 106 300 140 56 19 158 44 226 55
109 19 150 21 334 16 152 -4 239 -11 315 -26 137 -27 190 -27 224 0 59 46 56
-9 56 1052 0 536 3 995 6 1021 4 28 11 45 18 43 6 -3 61 -24 122 -48z"/>
</g>
</svg>
