<?xml version="1.0" standalone="no"?>
<!DOCTYPE svg PUBLIC "-//W3C//DTD SVG 20010904//EN"
 "http://www.w3.org/TR/2001/REC-SVG-20010904/DTD/svg10.dtd">
<svg version="1.0" xmlns="http://www.w3.org/2000/svg"
 width="382.000000pt" height="340.000000pt" viewBox="0 0 382.000000 340.000000"
 preserveAspectRatio="xMidYMid meet">
<metadata>
Created by potrace 1.16, written by Peter Selinger 2001-2019
</metadata>
<g transform="translate(0.000000,340.000000) scale(0.100000,-0.100000)"
fill="#000000" stroke="none">
<path d="M3070 3389 c-83 -16 -183 -74 -248 -143 -74 -79 -108 -148 -123 -248
-48 -309 227 -582 533 -530 101 18 172 55 249 131 101 101 139 191 139 334 0
222 -163 416 -384 456 -68 13 -102 12 -166 0z"/>
<path d="M1234 2781 c-62 -8 -96 -29 -132 -83 -23 -36 -27 -52 -27 -112 1 -63
4 -76 33 -117 55 -81 56 -81 525 -88 l407 -6 -427 -427 -428 -427 -505 -7
c-566 -8 -542 -4 -613 -83 -101 -112 -76 -302 50 -382 l47 -29 599 0 c537 0
603 2 634 17 19 9 120 99 225 201 l189 186 152 -152 151 -151 -371 -373 c-204
-205 -378 -387 -387 -405 -24 -48 -21 -137 8 -198 25 -55 81 -110 132 -131 38
-16 151 -19 188 -4 56 21 972 937 1014 1014 24 45 23 173 -2 212 -11 16 -85
96 -165 177 l-145 148 189 189 189 189 102 -99 c73 -70 114 -102 141 -109 23
-7 163 -11 352 -11 l313 0 50 27 c69 38 98 89 98 174 0 55 -5 72 -29 111 -52
81 -58 83 -365 86 l-269 3 -316 309 c-174 169 -329 319 -346 332 l-29 23 -591
1 c-324 1 -613 -1 -641 -5z"/>
</g>
</svg>
