<?xml version="1.0" standalone="no"?>
<!DOCTYPE svg PUBLIC "-//W3C//DTD SVG 20010904//EN"
 "http://www.w3.org/TR/2001/REC-SVG-20010904/DTD/svg10.dtd">
<svg version="1.0" xmlns="http://www.w3.org/2000/svg"
 width="374.000000pt" height="340.000000pt" viewBox="0 0 374.000000 340.000000"
 preserveAspectRatio="xMidYMid meet">
<metadata>
Created by potrace 1.16, written by Peter Selinger 2001-2019
</metadata>
<g transform="translate(0.000000,340.000000) scale(0.100000,-0.100000)"
fill="#000000" stroke="none">
<path d="M0 1700 l0 -1700 575 0 575 0 0 205 0 205 -365 0 -365 0 0 1285 0
1285 350 0 350 0 0 210 0 210 -560 0 -560 0 0 -1700z"/>
<path d="M2630 3190 l0 -210 350 0 350 0 0 -1285 0 -1285 -365 0 -365 0 0
-205 0 -205 570 0 570 0 0 1700 0 1700 -555 0 -555 0 0 -210z"/>
<path d="M1335 1342 c-83 -29 -129 -95 -130 -183 0 -46 6 -64 29 -97 50 -73
143 -100 223 -67 50 21 72 42 94 90 54 117 -20 249 -147 260 -27 2 -58 1 -69
-3z"/>
<path d="M1795 1336 c-108 -40 -152 -181 -86 -275 41 -57 79 -76 153 -76 59 0
70 3 105 31 55 45 76 86 76 151 0 125 -128 212 -248 169z"/>
<path d="M2278 1341 c-47 -15 -85 -49 -107 -94 -77 -158 87 -323 244 -247 68
33 100 86 100 164 -1 70 -26 118 -82 155 -38 25 -113 35 -155 22z"/>
</g>
</svg>
